<mxfile host="Electron" agent="Mozilla/5.0 (Windows NT 10.0; Win64; x64) AppleWebKit/537.36 (KHTML, like Gecko) draw.io/26.0.9 Chrome/128.0.6613.186 Electron/32.2.5 Safari/537.36" version="26.0.9">
  <diagram name="Page-1" id="qasI6i-efM5GnJLFjs5Y">
    <mxGraphModel dx="989" dy="577" grid="1" gridSize="10" guides="1" tooltips="1" connect="1" arrows="1" fold="1" page="1" pageScale="1" pageWidth="827" pageHeight="1169" math="0" shadow="0">
      <root>
        <mxCell id="0" />
        <mxCell id="1" parent="0" />
        <mxCell id="9fmKbsGH3oNkEum0YKu1-1" value="A" style="swimlane;fontStyle=0;childLayout=stackLayout;horizontal=1;startSize=26;fillColor=none;horizontalStack=0;resizeParent=1;resizeParentMax=0;resizeLast=0;collapsible=1;marginBottom=0;whiteSpace=wrap;html=1;" parent="1" vertex="1">
          <mxGeometry x="160" y="150" width="140" height="52" as="geometry" />
        </mxCell>
        <mxCell id="9fmKbsGH3oNkEum0YKu1-2" value="=(A)" style="text;strokeColor=none;fillColor=none;align=left;verticalAlign=top;spacingLeft=4;spacingRight=4;overflow=hidden;rotatable=0;points=[[0,0.5],[1,0.5]];portConstraint=eastwest;whiteSpace=wrap;html=1;" parent="9fmKbsGH3oNkEum0YKu1-1" vertex="1">
          <mxGeometry y="26" width="140" height="26" as="geometry" />
        </mxCell>
        <mxCell id="9fmKbsGH3oNkEum0YKu1-5" value="B C" style="swimlane;fontStyle=0;childLayout=stackLayout;horizontal=1;startSize=26;fillColor=none;horizontalStack=0;resizeParent=1;resizeParentMax=0;resizeLast=0;collapsible=1;marginBottom=0;whiteSpace=wrap;html=1;" parent="1" vertex="1">
          <mxGeometry x="160" y="280" width="140" height="52" as="geometry" />
        </mxCell>
        <mxCell id="9fmKbsGH3oNkEum0YKu1-6" value="=(A B C)" style="text;strokeColor=none;fillColor=none;align=left;verticalAlign=top;spacingLeft=4;spacingRight=4;overflow=hidden;rotatable=0;points=[[0,0.5],[1,0.5]];portConstraint=eastwest;whiteSpace=wrap;html=1;" parent="9fmKbsGH3oNkEum0YKu1-5" vertex="1">
          <mxGeometry y="26" width="140" height="26" as="geometry" />
        </mxCell>
        <mxCell id="9fmKbsGH3oNkEum0YKu1-9" value="D" style="swimlane;fontStyle=0;childLayout=stackLayout;horizontal=1;startSize=26;fillColor=none;horizontalStack=0;resizeParent=1;resizeParentMax=0;resizeLast=0;collapsible=1;marginBottom=0;whiteSpace=wrap;html=1;" parent="1" vertex="1">
          <mxGeometry x="40" y="400" width="140" height="52" as="geometry" />
        </mxCell>
        <mxCell id="9fmKbsGH3oNkEum0YKu1-10" value="=(A B C D)" style="text;strokeColor=none;fillColor=none;align=left;verticalAlign=top;spacingLeft=4;spacingRight=4;overflow=hidden;rotatable=0;points=[[0,0.5],[1,0.5]];portConstraint=eastwest;whiteSpace=wrap;html=1;" parent="9fmKbsGH3oNkEum0YKu1-9" vertex="1">
          <mxGeometry y="26" width="140" height="26" as="geometry" />
        </mxCell>
        <mxCell id="9fmKbsGH3oNkEum0YKu1-13" value="E" style="swimlane;fontStyle=0;childLayout=stackLayout;horizontal=1;startSize=26;fillColor=none;horizontalStack=0;resizeParent=1;resizeParentMax=0;resizeLast=0;collapsible=1;marginBottom=0;whiteSpace=wrap;html=1;" parent="1" vertex="1">
          <mxGeometry x="280" y="400" width="140" height="52" as="geometry" />
        </mxCell>
        <mxCell id="9fmKbsGH3oNkEum0YKu1-14" value="=(A B C E)" style="text;strokeColor=none;fillColor=none;align=left;verticalAlign=top;spacingLeft=4;spacingRight=4;overflow=hidden;rotatable=0;points=[[0,0.5],[1,0.5]];portConstraint=eastwest;whiteSpace=wrap;html=1;" parent="9fmKbsGH3oNkEum0YKu1-13" vertex="1">
          <mxGeometry y="26" width="140" height="26" as="geometry" />
        </mxCell>
        <mxCell id="9fmKbsGH3oNkEum0YKu1-20" value="" style="triangle;whiteSpace=wrap;html=1;rotation=-90;" parent="1" vertex="1">
          <mxGeometry x="160" y="320" width="20" height="50" as="geometry" />
        </mxCell>
        <mxCell id="9fmKbsGH3oNkEum0YKu1-21" value="" style="triangle;whiteSpace=wrap;html=1;rotation=-90;" parent="1" vertex="1">
          <mxGeometry x="280" y="320" width="20" height="50" as="geometry" />
        </mxCell>
        <mxCell id="9fmKbsGH3oNkEum0YKu1-23" value="" style="triangle;whiteSpace=wrap;html=1;rotation=-90;" parent="1" vertex="1">
          <mxGeometry x="220" y="190" width="20" height="50" as="geometry" />
        </mxCell>
        <mxCell id="9fmKbsGH3oNkEum0YKu1-24" value="" style="endArrow=none;html=1;rounded=0;entryX=0;entryY=0.5;entryDx=0;entryDy=0;exitX=0.5;exitY=0;exitDx=0;exitDy=0;" parent="1" source="9fmKbsGH3oNkEum0YKu1-5" target="9fmKbsGH3oNkEum0YKu1-23" edge="1">
          <mxGeometry width="50" height="50" relative="1" as="geometry">
            <mxPoint x="200" y="280" as="sourcePoint" />
            <mxPoint x="250" y="230" as="targetPoint" />
          </mxGeometry>
        </mxCell>
        <mxCell id="9fmKbsGH3oNkEum0YKu1-26" value="" style="endArrow=none;html=1;rounded=0;entryX=0;entryY=0.5;entryDx=0;entryDy=0;exitX=0.926;exitY=0.035;exitDx=0;exitDy=0;exitPerimeter=0;" parent="1" source="9fmKbsGH3oNkEum0YKu1-9" target="9fmKbsGH3oNkEum0YKu1-20" edge="1">
          <mxGeometry width="50" height="50" relative="1" as="geometry">
            <mxPoint x="170" y="400" as="sourcePoint" />
            <mxPoint x="170" y="360" as="targetPoint" />
          </mxGeometry>
        </mxCell>
        <mxCell id="9fmKbsGH3oNkEum0YKu1-27" value="" style="endArrow=none;html=1;rounded=0;entryX=0;entryY=0.5;entryDx=0;entryDy=0;" parent="1" target="9fmKbsGH3oNkEum0YKu1-21" edge="1">
          <mxGeometry width="50" height="50" relative="1" as="geometry">
            <mxPoint x="290" y="399" as="sourcePoint" />
            <mxPoint x="330" y="431" as="targetPoint" />
          </mxGeometry>
        </mxCell>
        <mxCell id="9fmKbsGH3oNkEum0YKu1-28" style="edgeStyle=orthogonalEdgeStyle;rounded=0;orthogonalLoop=1;jettySize=auto;html=1;exitX=1;exitY=0.5;exitDx=0;exitDy=0;entryX=0.069;entryY=0.904;entryDx=0;entryDy=0;entryPerimeter=0;" parent="1" source="9fmKbsGH3oNkEum0YKu1-20" target="9fmKbsGH3oNkEum0YKu1-6" edge="1">
          <mxGeometry relative="1" as="geometry" />
        </mxCell>
        <mxCell id="9fmKbsGH3oNkEum0YKu1-29" style="edgeStyle=orthogonalEdgeStyle;rounded=0;orthogonalLoop=1;jettySize=auto;html=1;exitX=1;exitY=0.5;exitDx=0;exitDy=0;entryX=0.932;entryY=0.872;entryDx=0;entryDy=0;entryPerimeter=0;" parent="1" source="9fmKbsGH3oNkEum0YKu1-21" target="9fmKbsGH3oNkEum0YKu1-6" edge="1">
          <mxGeometry relative="1" as="geometry" />
        </mxCell>
        <mxCell id="9fmKbsGH3oNkEum0YKu1-30" style="edgeStyle=orthogonalEdgeStyle;rounded=0;orthogonalLoop=1;jettySize=auto;html=1;exitX=1;exitY=0.5;exitDx=0;exitDy=0;entryX=0.498;entryY=0.904;entryDx=0;entryDy=0;entryPerimeter=0;" parent="1" source="9fmKbsGH3oNkEum0YKu1-23" target="9fmKbsGH3oNkEum0YKu1-2" edge="1">
          <mxGeometry relative="1" as="geometry" />
        </mxCell>
        <mxCell id="9fmKbsGH3oNkEum0YKu1-31" value="F" style="swimlane;fontStyle=0;childLayout=stackLayout;horizontal=1;startSize=26;fillColor=none;horizontalStack=0;resizeParent=1;resizeParentMax=0;resizeLast=0;collapsible=1;marginBottom=0;whiteSpace=wrap;html=1;" parent="1" vertex="1">
          <mxGeometry x="470" y="400" width="140" height="52" as="geometry" />
        </mxCell>
        <mxCell id="9fmKbsGH3oNkEum0YKu1-32" value="=(ABF)" style="text;strokeColor=none;fillColor=none;align=left;verticalAlign=top;spacingLeft=4;spacingRight=4;overflow=hidden;rotatable=0;points=[[0,0.5],[1,0.5]];portConstraint=eastwest;whiteSpace=wrap;html=1;" parent="9fmKbsGH3oNkEum0YKu1-31" vertex="1">
          <mxGeometry y="26" width="140" height="26" as="geometry" />
        </mxCell>
        <mxCell id="9fmKbsGH3oNkEum0YKu1-85" value="B" style="swimlane;fontStyle=0;childLayout=stackLayout;horizontal=1;startSize=26;fillColor=none;horizontalStack=0;resizeParent=1;resizeParentMax=0;resizeLast=0;collapsible=1;marginBottom=0;whiteSpace=wrap;html=1;" parent="1" vertex="1">
          <mxGeometry x="400" y="280" width="140" height="52" as="geometry" />
        </mxCell>
        <mxCell id="9fmKbsGH3oNkEum0YKu1-86" value="=(AB)" style="text;strokeColor=none;fillColor=none;align=left;verticalAlign=top;spacingLeft=4;spacingRight=4;overflow=hidden;rotatable=0;points=[[0,0.5],[1,0.5]];portConstraint=eastwest;whiteSpace=wrap;html=1;" parent="9fmKbsGH3oNkEum0YKu1-85" vertex="1">
          <mxGeometry y="26" width="140" height="26" as="geometry" />
        </mxCell>
        <mxCell id="9fmKbsGH3oNkEum0YKu1-89" value="" style="triangle;whiteSpace=wrap;html=1;rotation=-180;" parent="1" vertex="1">
          <mxGeometry x="300" y="162" width="20" height="50" as="geometry" />
        </mxCell>
        <mxCell id="9fmKbsGH3oNkEum0YKu1-92" value="" style="endArrow=none;html=1;rounded=0;exitX=0;exitY=0.5;exitDx=0;exitDy=0;entryX=0.539;entryY=-0.042;entryDx=0;entryDy=0;entryPerimeter=0;" parent="1" source="9fmKbsGH3oNkEum0YKu1-89" target="9fmKbsGH3oNkEum0YKu1-85" edge="1">
          <mxGeometry width="50" height="50" relative="1" as="geometry">
            <mxPoint x="580" y="340" as="sourcePoint" />
            <mxPoint x="610" y="190" as="targetPoint" />
            <Array as="points">
              <mxPoint x="475" y="187" />
            </Array>
          </mxGeometry>
        </mxCell>
        <mxCell id="9fmKbsGH3oNkEum0YKu1-93" value="" style="triangle;whiteSpace=wrap;html=1;rotation=-90;" parent="1" vertex="1">
          <mxGeometry x="470" y="320" width="20" height="50" as="geometry" />
        </mxCell>
        <mxCell id="9fmKbsGH3oNkEum0YKu1-94" style="edgeStyle=orthogonalEdgeStyle;rounded=0;orthogonalLoop=1;jettySize=auto;html=1;exitX=1;exitY=0.5;exitDx=0;exitDy=0;entryX=0.575;entryY=0.904;entryDx=0;entryDy=0;entryPerimeter=0;" parent="1" source="9fmKbsGH3oNkEum0YKu1-93" target="9fmKbsGH3oNkEum0YKu1-86" edge="1">
          <mxGeometry relative="1" as="geometry" />
        </mxCell>
        <mxCell id="9fmKbsGH3oNkEum0YKu1-95" value="" style="endArrow=none;html=1;rounded=0;entryX=0;entryY=0.5;entryDx=0;entryDy=0;exitX=0.069;exitY=-0.01;exitDx=0;exitDy=0;exitPerimeter=0;" parent="1" source="9fmKbsGH3oNkEum0YKu1-31" target="9fmKbsGH3oNkEum0YKu1-93" edge="1">
          <mxGeometry width="50" height="50" relative="1" as="geometry">
            <mxPoint x="470" y="400" as="sourcePoint" />
            <mxPoint x="520" y="350" as="targetPoint" />
          </mxGeometry>
        </mxCell>
        <mxCell id="jvtxWcJpLomPbyDAMqOS-17" value="A" style="swimlane;fontStyle=0;childLayout=stackLayout;horizontal=1;startSize=26;fillColor=none;horizontalStack=0;resizeParent=1;resizeParentMax=0;resizeLast=0;collapsible=1;marginBottom=0;whiteSpace=wrap;html=1;" vertex="1" parent="1">
          <mxGeometry x="810" y="80" width="140" height="52" as="geometry" />
        </mxCell>
        <mxCell id="jvtxWcJpLomPbyDAMqOS-18" value="=(A)" style="text;strokeColor=none;fillColor=none;align=left;verticalAlign=top;spacingLeft=4;spacingRight=4;overflow=hidden;rotatable=0;points=[[0,0.5],[1,0.5]];portConstraint=eastwest;whiteSpace=wrap;html=1;" vertex="1" parent="jvtxWcJpLomPbyDAMqOS-17">
          <mxGeometry y="26" width="140" height="26" as="geometry" />
        </mxCell>
        <mxCell id="jvtxWcJpLomPbyDAMqOS-19" value="B" style="swimlane;fontStyle=0;childLayout=stackLayout;horizontal=1;startSize=26;fillColor=none;horizontalStack=0;resizeParent=1;resizeParentMax=0;resizeLast=0;collapsible=1;marginBottom=0;whiteSpace=wrap;html=1;" vertex="1" parent="1">
          <mxGeometry x="810" y="189" width="140" height="52" as="geometry" />
        </mxCell>
        <mxCell id="jvtxWcJpLomPbyDAMqOS-20" value="=(AB)" style="text;strokeColor=none;fillColor=none;align=left;verticalAlign=top;spacingLeft=4;spacingRight=4;overflow=hidden;rotatable=0;points=[[0,0.5],[1,0.5]];portConstraint=eastwest;whiteSpace=wrap;html=1;" vertex="1" parent="jvtxWcJpLomPbyDAMqOS-19">
          <mxGeometry y="26" width="140" height="26" as="geometry" />
        </mxCell>
        <mxCell id="jvtxWcJpLomPbyDAMqOS-23" value="F" style="swimlane;fontStyle=0;childLayout=stackLayout;horizontal=1;startSize=26;fillColor=none;horizontalStack=0;resizeParent=1;resizeParentMax=0;resizeLast=0;collapsible=1;marginBottom=0;whiteSpace=wrap;html=1;" vertex="1" parent="1">
          <mxGeometry x="1030" y="280" width="140" height="52" as="geometry" />
        </mxCell>
        <mxCell id="jvtxWcJpLomPbyDAMqOS-24" value="=(ABF)" style="text;strokeColor=none;fillColor=none;align=left;verticalAlign=top;spacingLeft=4;spacingRight=4;overflow=hidden;rotatable=0;points=[[0,0.5],[1,0.5]];portConstraint=eastwest;whiteSpace=wrap;html=1;" vertex="1" parent="jvtxWcJpLomPbyDAMqOS-23">
          <mxGeometry y="26" width="140" height="26" as="geometry" />
        </mxCell>
        <mxCell id="jvtxWcJpLomPbyDAMqOS-37" style="edgeStyle=orthogonalEdgeStyle;rounded=0;orthogonalLoop=1;jettySize=auto;html=1;entryX=0;entryY=0.5;entryDx=0;entryDy=0;" edge="1" parent="1" source="jvtxWcJpLomPbyDAMqOS-25" target="jvtxWcJpLomPbyDAMqOS-30">
          <mxGeometry relative="1" as="geometry" />
        </mxCell>
        <mxCell id="jvtxWcJpLomPbyDAMqOS-25" value="D" style="swimlane;fontStyle=0;childLayout=stackLayout;horizontal=1;startSize=26;fillColor=none;horizontalStack=0;resizeParent=1;resizeParentMax=0;resizeLast=0;collapsible=1;marginBottom=0;whiteSpace=wrap;html=1;" vertex="1" parent="1">
          <mxGeometry x="720" y="400" width="140" height="52" as="geometry" />
        </mxCell>
        <mxCell id="jvtxWcJpLomPbyDAMqOS-26" value="=(A B C D)" style="text;strokeColor=none;fillColor=none;align=left;verticalAlign=top;spacingLeft=4;spacingRight=4;overflow=hidden;rotatable=0;points=[[0,0.5],[1,0.5]];portConstraint=eastwest;whiteSpace=wrap;html=1;" vertex="1" parent="jvtxWcJpLomPbyDAMqOS-25">
          <mxGeometry y="26" width="140" height="26" as="geometry" />
        </mxCell>
        <mxCell id="jvtxWcJpLomPbyDAMqOS-38" style="edgeStyle=orthogonalEdgeStyle;rounded=0;orthogonalLoop=1;jettySize=auto;html=1;entryX=1;entryY=0.5;entryDx=0;entryDy=0;" edge="1" parent="1" source="jvtxWcJpLomPbyDAMqOS-27" target="jvtxWcJpLomPbyDAMqOS-30">
          <mxGeometry relative="1" as="geometry" />
        </mxCell>
        <mxCell id="jvtxWcJpLomPbyDAMqOS-27" value="E" style="swimlane;fontStyle=0;childLayout=stackLayout;horizontal=1;startSize=26;fillColor=none;horizontalStack=0;resizeParent=1;resizeParentMax=0;resizeLast=0;collapsible=1;marginBottom=0;whiteSpace=wrap;html=1;" vertex="1" parent="1">
          <mxGeometry x="900" y="400" width="140" height="52" as="geometry" />
        </mxCell>
        <mxCell id="jvtxWcJpLomPbyDAMqOS-28" value="=(A B C E)" style="text;strokeColor=none;fillColor=none;align=left;verticalAlign=top;spacingLeft=4;spacingRight=4;overflow=hidden;rotatable=0;points=[[0,0.5],[1,0.5]];portConstraint=eastwest;whiteSpace=wrap;html=1;" vertex="1" parent="jvtxWcJpLomPbyDAMqOS-27">
          <mxGeometry y="26" width="140" height="26" as="geometry" />
        </mxCell>
        <mxCell id="jvtxWcJpLomPbyDAMqOS-29" value="C" style="swimlane;fontStyle=0;childLayout=stackLayout;horizontal=1;startSize=26;fillColor=none;horizontalStack=0;resizeParent=1;resizeParentMax=0;resizeLast=0;collapsible=1;marginBottom=0;whiteSpace=wrap;html=1;" vertex="1" parent="1">
          <mxGeometry x="810" y="290" width="140" height="52" as="geometry" />
        </mxCell>
        <mxCell id="jvtxWcJpLomPbyDAMqOS-30" value="=(ABC)" style="text;strokeColor=none;fillColor=none;align=left;verticalAlign=top;spacingLeft=4;spacingRight=4;overflow=hidden;rotatable=0;points=[[0,0.5],[1,0.5]];portConstraint=eastwest;whiteSpace=wrap;html=1;" vertex="1" parent="jvtxWcJpLomPbyDAMqOS-29">
          <mxGeometry y="26" width="140" height="26" as="geometry" />
        </mxCell>
        <mxCell id="jvtxWcJpLomPbyDAMqOS-35" style="edgeStyle=orthogonalEdgeStyle;rounded=0;orthogonalLoop=1;jettySize=auto;html=1;entryX=0.386;entryY=1;entryDx=0;entryDy=0;entryPerimeter=0;" edge="1" parent="1" source="jvtxWcJpLomPbyDAMqOS-29" target="jvtxWcJpLomPbyDAMqOS-20">
          <mxGeometry relative="1" as="geometry" />
        </mxCell>
        <mxCell id="jvtxWcJpLomPbyDAMqOS-36" style="edgeStyle=orthogonalEdgeStyle;rounded=0;orthogonalLoop=1;jettySize=auto;html=1;entryX=0.45;entryY=0.962;entryDx=0;entryDy=0;entryPerimeter=0;" edge="1" parent="1" source="jvtxWcJpLomPbyDAMqOS-19" target="jvtxWcJpLomPbyDAMqOS-18">
          <mxGeometry relative="1" as="geometry" />
        </mxCell>
        <mxCell id="jvtxWcJpLomPbyDAMqOS-40" style="edgeStyle=orthogonalEdgeStyle;rounded=0;orthogonalLoop=1;jettySize=auto;html=1;entryX=0.992;entryY=0.069;entryDx=0;entryDy=0;entryPerimeter=0;" edge="1" parent="1" source="jvtxWcJpLomPbyDAMqOS-23" target="jvtxWcJpLomPbyDAMqOS-20">
          <mxGeometry relative="1" as="geometry" />
        </mxCell>
        <mxCell id="jvtxWcJpLomPbyDAMqOS-42" value="le faux resluta" style="text;html=1;align=center;verticalAlign=middle;whiteSpace=wrap;rounded=0;" vertex="1" parent="1">
          <mxGeometry x="200" y="70" width="60" height="30" as="geometry" />
        </mxCell>
        <mxCell id="jvtxWcJpLomPbyDAMqOS-43" value="Le vrai resluta&lt;div&gt;&lt;br&gt;&lt;/div&gt;" style="text;html=1;align=center;verticalAlign=middle;whiteSpace=wrap;rounded=0;" vertex="1" parent="1">
          <mxGeometry x="850" y="20" width="60" height="40" as="geometry" />
        </mxCell>
      </root>
    </mxGraphModel>
  </diagram>
</mxfile>
